<?xml version="1.0" standalone="no"?>
<!DOCTYPE svg PUBLIC "-//W3C//DTD SVG 20010904//EN"
 "http://www.w3.org/TR/2001/REC-SVG-20010904/DTD/svg10.dtd">
<svg version="1.0" xmlns="http://www.w3.org/2000/svg"
 width="700.000000pt" height="700.000000pt" viewBox="0 0 700.000000 700.000000"
 preserveAspectRatio="xMidYMid meet">
<metadata>
Created by potrace 1.11, written by Peter Selinger 2001-2013
</metadata>
<g transform="translate(0.000000,700.000000) scale(0.100000,-0.100000)"
fill="#000000" stroke="none">
<path d="M3774 6823 c-54 -97 -108 -192 -119 -212 -11 -20 -42 -74 -68 -121
-26 -47 -52 -92 -57 -100 -14 -22 -165 -293 -173 -310 -4 -8 -17 -31 -28 -50
-17 -29 -138 -243 -336 -596 -15 -28 -81 -145 -146 -260 l-118 -209 -296 -175
c-163 -96 -314 -186 -337 -199 -22 -13 -149 -87 -281 -166 -132 -78 -265 -157
-295 -174 -30 -18 -71 -42 -90 -54 -19 -11 -134 -79 -255 -150 -121 -71 -232
-138 -247 -148 -15 -10 -29 -19 -32 -19 -2 0 -51 -28 -108 -62 -141 -84 -636
-377 -673 -398 -81 -47 -105 -63 -105 -68 0 -5 895 -536 1110 -659 21 -12 68
-40 105 -62 37 -23 69 -41 72 -41 2 0 19 -10 37 -23 l34 -22 -125 -220 c-68
-121 -128 -229 -134 -240 -5 -11 -13 -27 -19 -35 -14 -21 -110 -191 -110 -195
0 -1 -29 -53 -65 -115 -36 -62 -65 -114 -65 -116 0 -2 -18 -33 -39 -68 -26
-42 -36 -66 -28 -69 7 -2 546 -2 1198 -1 l1185 4 240 -141 c131 -77 262 -154
289 -171 28 -17 68 -41 90 -53 22 -13 85 -49 140 -82 55 -32 107 -62 115 -66
8 -4 44 -25 79 -47 34 -22 65 -40 67 -40 3 0 33 -17 67 -39 53 -33 110 -66
334 -197 17 -11 80 -48 140 -83 59 -35 124 -72 143 -83 34 -20 56 -33 225
-133 44 -26 94 -56 110 -65 17 -10 93 -54 170 -100 77 -45 160 -94 185 -108
25 -13 50 -28 55 -32 6 -4 27 -17 47 -28 l37 -21 -2 745 c-1 490 1 744 8 745
6 1 296 3 645 4 349 2 638 4 642 4 4 1 -26 58 -66 129 -40 70 -86 150 -101
177 -16 28 -39 68 -51 90 -13 22 -29 51 -37 65 -7 14 -80 142 -162 285 -81
143 -159 280 -173 305 -14 25 -78 137 -142 250 -102 179 -197 346 -276 485
-12 22 -82 146 -156 276 l-133 235 -3 1454 c-2 800 -5 1456 -7 1458 -2 3 -21
-6 -42 -18 -80 -48 -359 -213 -388 -230 -16 -9 -99 -58 -183 -109 -85 -50
-157 -91 -162 -91 -5 0 -10 -4 -12 -8 -1 -4 -32 -25 -68 -45 -109 -62 -151
-87 -261 -153 -59 -35 -111 -64 -115 -64 -7 1 -202 338 -377 654 -16 28 -38
67 -49 86 -23 39 -41 70 -106 185 -24 44 -45 81 -46 82 -1 2 -47 -77 -102
-174z"/>
</g>
</svg>
